<svg width="40" height="40" viewBox="0 0 40 40" fill="none" xmlns="http://www.w3.org/2000/svg">
<path fill-rule="evenodd" clip-rule="evenodd" d="M20.0002 33.333C27.364 33.333 33.3335 27.3635 33.3335 19.9997C33.3335 12.6359 27.364 6.66634 20.0002 6.66634C12.6364 6.66634 6.66683 12.6359 6.66683 19.9997C6.66683 27.3635 12.6364 33.333 20.0002 33.333ZM20.0002 36.6663C29.2049 36.6663 36.6668 29.2044 36.6668 19.9997C36.6668 10.7949 29.2049 3.33301 20.0002 3.33301C10.7954 3.33301 3.3335 10.7949 3.3335 19.9997C3.3335 29.2044 10.7954 36.6663 20.0002 36.6663Z" fill="white"/>
<path fill-rule="evenodd" clip-rule="evenodd" d="M13.8217 13.8212C14.4725 13.1703 15.5278 13.1703 16.1787 13.8212L20.0002 17.6427L23.8217 13.8212C24.4725 13.1703 25.5278 13.1703 26.1787 13.8212C26.8295 14.472 26.8295 15.5273 26.1787 16.1782L22.3572 19.9997L26.1787 23.8212C26.8295 24.472 26.8295 25.5273 26.1787 26.1782C25.5278 26.8291 24.4725 26.8291 23.8217 26.1782L20.0002 22.3567L16.1787 26.1782C15.5278 26.8291 14.4725 26.8291 13.8217 26.1782C13.1708 25.5273 13.1708 24.472 13.8217 23.8212L17.6431 19.9997L13.8217 16.1782C13.1708 15.5273 13.1708 14.472 13.8217 13.8212Z" fill="white"/>
</svg>
