<svg width="41" height="41" viewBox="0 0 41 41" fill="none" xmlns="http://www.w3.org/2000/svg">
<path d="M20.8314 0.0261567C26.1252 -0.00135313 31.2132 2.08414 34.976 5.82384C38.7388 9.56355 40.8683 14.6511 40.8959 19.9674C40.9235 25.2836 38.8471 30.3931 35.1233 34.1717C31.3996 37.9503 26.3335 40.0886 21.0397 40.1161C15.7459 40.1436 10.658 38.0581 6.89516 34.3184C3.13234 30.5787 1.00289 25.4911 0.97526 20.1748C0.947633 14.8586 3.02409 9.74915 6.74784 5.97053C10.4716 2.19192 15.5376 0.0536666 20.8314 0.0261567ZM21.0249 37.2525C25.5624 37.2289 29.9047 35.3961 33.0965 32.1573C36.2883 28.9185 38.0681 24.539 38.0444 19.9822C38.0207 15.4254 36.1955 11.0646 32.9702 7.85917C29.7449 4.65371 25.3838 2.86614 20.8463 2.88972C16.3087 2.9133 11.9665 4.74609 8.77466 7.9849C5.58288 11.2237 3.80305 15.6032 3.82673 20.16C3.85041 24.7168 5.67566 29.0776 8.90093 32.2831C12.1262 35.4885 16.4873 37.2761 21.0249 37.2525ZM16.6212 12.9344C17.5717 12.9295 18.0494 13.4043 18.0543 14.3588L18.1139 25.8131C18.1188 26.7676 17.6461 27.2473 16.6956 27.2523C15.7451 27.2572 15.2674 26.7824 15.2624 25.8279L15.2029 14.3736C15.1979 13.4191 15.6707 12.9394 16.6212 12.9344ZM25.1756 12.89C26.1261 12.885 26.6038 13.3598 26.6088 14.3143L26.6683 25.7686C26.6732 26.7231 26.2005 27.2029 25.25 27.2078C24.2995 27.2127 23.8218 26.738 23.8168 25.7834L23.7573 14.3292C23.7523 13.3746 24.2251 12.8949 25.1756 12.89Z" fill="white"/>
</svg>
