<svg width="40" height="40" viewBox="0 0 40 40" fill="none" xmlns="http://www.w3.org/2000/svg">
<path fill-rule="evenodd" clip-rule="evenodd" d="M3.75 20C3.75 11.0254 11.0254 3.75 20 3.75C28.9748 3.75 36.25 11.0254 36.25 20C36.25 28.9748 28.9748 36.25 20 36.25C11.0254 36.25 3.75 28.9748 3.75 20ZM20 0C8.9543 0 0 8.9543 0 20C0 31.0458 8.9543 40 20 40C31.0458 40 40 31.0458 40 20C40 8.9543 31.0458 0 20 0ZM15.9466 13.0679C15.53 12.818 15 13.118 15 13.6039V26.3963C15 26.882 15.53 27.182 15.9466 26.932L26.6068 20.5359C27.0113 20.2932 27.0113 19.7068 26.6068 19.4641L15.9466 13.0679Z" fill="white"/>
</svg>
