<svg width="24" height="24" viewBox="0 0 24 24" fill="none" xmlns="http://www.w3.org/2000/svg">
<path fill-rule="evenodd" clip-rule="evenodd" d="M3.16451 6.68493C3.37027 5.49156 4.05187 4.53428 4.78605 3.80011C5.95911 2.62708 7.89952 2.76651 8.89282 4.09519L10.5143 6.26415C11.4071 7.45849 11.2872 9.12732 10.2328 10.1818L10.1217 10.2929C9.73113 10.6834 9.73113 11.3166 10.1217 11.7071L12.2932 13.8787C12.6838 14.2692 13.3169 14.2692 13.7074 13.8787L13.8186 13.7675C14.873 12.7131 16.5419 12.5932 17.7362 13.4861L19.9215 15.1197C21.2416 16.1066 21.3801 18.0345 20.2147 19.1999C19.4723 19.9422 18.5046 20.6349 17.2966 20.8435C15.0725 21.2275 10.8096 21.2235 6.79323 17.2071C2.77496 13.1889 2.78198 8.90351 3.16451 6.68493ZM6.20025 5.21434C5.62413 5.79045 5.24452 6.39204 5.13543 7.02476C4.82694 8.8139 4.78167 12.3671 8.20744 15.7929C11.6348 19.2203 15.1682 19.1814 16.9563 18.8727C17.6012 18.7613 18.2132 18.373 18.8004 17.7857C19.1044 17.4817 19.0683 16.979 18.724 16.7216L16.5387 15.0879C16.1406 14.7903 15.5843 14.8303 15.2328 15.1817L15.1217 15.2929C13.9501 16.4645 12.0506 16.4645 10.879 15.2929L8.70744 13.1213C7.53587 11.9498 7.53587 10.0503 8.70744 8.8787L8.81861 8.76754C9.17008 8.41606 9.21005 7.85978 8.91243 7.46167L7.29096 5.29271C7.02715 4.93982 6.5118 4.9028 6.20025 5.21434Z" fill="white"/>
</svg>
