<svg width="113" height="19" viewBox="0 0 113 19" fill="none" xmlns="http://www.w3.org/2000/svg">
<mask id="mask0_3564_630" style="mask-type:luminance" maskUnits="userSpaceOnUse" x="34" y="0" width="79" height="15">
<path fill-rule="evenodd" clip-rule="evenodd" d="M34.8203 0.716553H112.999V14.8266H34.8203V0.716553Z" fill="white"/>
</mask>
<g mask="url(#mask0_3564_630)">
<path fill-rule="evenodd" clip-rule="evenodd" d="M56.9035 8.9228V11.1333C56.5065 12.2597 55.5223 13.0571 54.3702 13.0571C52.8682 13.0571 51.6504 11.7012 51.6504 10.0283C51.6504 8.35584 52.8682 6.99951 54.3702 6.99951C55.5223 6.99951 56.5065 7.79688 56.9035 8.9228ZM70.9353 7.31065H73.7527V5.58005H70.9353V2.49268H68.8438V11.5341C68.8438 13.532 69.951 15.2502 73.2684 14.372V12.6481C71.6128 13.1791 70.9353 12.5526 70.9353 11.5341V7.31065ZM34.8203 14.4784C35.0694 9.64181 35.52 5.32553 36.4941 0.715332H38.9959L41.6854 10.8521L44.375 0.715332H46.8763C47.8504 5.32553 48.3015 9.64181 48.5506 14.4784H46.4488C46.301 10.8206 46.0039 7.41974 45.4033 4.02913L43.024 13.0502H40.3464L37.9676 4.02913C37.3669 7.41974 37.0695 10.8206 36.9221 14.4784H34.8203ZM66.2863 7.98306C65.2759 6.45447 62.0566 6.68045 62.3146 8.00748C62.4242 8.56866 63.5763 8.80974 64.4878 9.01219C66.2828 9.41176 68.0422 10.1638 68.0422 11.8429C68.0422 13.6708 66.2593 14.6426 64.645 14.7989C62.3958 15.0169 60.2741 13.8559 59.6641 11.5757L61.4657 11.0944C61.8062 12.3677 63.2185 13.0479 64.4487 13.0479C66.7081 13.0479 66.6819 11.4087 64.0385 10.8209C62.1956 10.4107 60.3154 9.74563 60.3154 8.02524C60.3154 6.09619 62.4735 5.25708 64.1033 5.25708C65.4051 5.25708 66.7938 5.72103 67.6991 6.80032L66.2863 7.98306ZM76.002 8.85059H80.7516C80.3919 7.68028 79.464 6.9646 78.3763 6.9646C77.2886 6.9646 76.3611 7.68028 76.002 8.85059ZM78.375 5.2793C80.8719 5.2793 82.896 7.40592 82.896 10.0289C82.896 10.2087 82.8858 10.3854 82.8675 10.5603H75.8923C76.4033 13.6144 79.8667 13.8426 81.0015 11.1894L82.7725 12.1573C81.9641 13.7116 80.2987 14.7785 78.375 14.7785C75.8786 14.7785 73.8545 12.6519 73.8545 10.0289C73.8545 7.40592 75.8786 5.2793 78.375 5.2793ZM84.1582 14.4795H86.2498V9.46882C86.2498 7.59304 87.5608 6.73307 89.2088 7.65209L90.1531 5.70882C88.9509 5.018 87.2327 5.0997 86.2498 6.31662V5.57785H84.1582V14.4795ZM105.049 1.19702C105.764 1.19702 106.343 1.7764 106.343 2.49164C106.343 3.20643 105.764 3.78626 105.049 3.78626C104.334 3.78626 103.754 3.20643 103.754 2.49164C103.754 1.7764 104.334 1.19702 105.049 1.19702ZM110.18 11.5341V7.31065H112.999V5.58005H110.18V2.49268H108.089V11.5341C108.089 13.532 109.197 15.2502 112.514 14.372V12.6481C110.858 13.1791 110.18 12.5526 110.18 11.5341ZM104.003 14.4781H106.094V5.5769H104.003V14.4781ZM93.083 14.4786H95.1745V9.52741C95.8498 8.82416 96.5033 8.11514 97.1427 7.39502L100.905 14.4786H103.274L98.6091 5.69683C99.9357 4.11718 101.22 2.47227 102.53 0.715476H99.9215C98.38 2.77595 96.8301 4.69346 95.1745 6.51063V0.715476H93.083V14.4786ZM56.9037 14.4797H58.9952V5.57809H56.9037V6.67292C56.1249 5.81206 55.0487 5.2793 53.8598 5.2793C51.4841 5.2793 49.5586 7.40592 49.5586 10.0289C49.5586 12.6519 51.4841 14.7785 53.8598 14.7785C55.0487 14.7785 56.1249 14.2457 56.9037 13.3849V14.4797Z" fill="#101C55"/>
</g>
<g clip-path="url(#clip0_3564_630)">
<path d="M27.2871 13.7859C27.3204 13.7043 27.3367 13.6577 27.3367 13.6577L27.2871 13.7859Z" fill="#101C55"/>
<path d="M6.47068 9.54699C5.49416 9.66695 5.05245 9.28171 4.78879 8.99861C4.68727 8.89597 4.60426 8.77628 4.54347 8.6449C4.27165 9.36739 4.47551 10.1763 4.95664 10.5642C5.90801 11.3347 8.74378 10.1091 10.8484 8.80599C10.4766 8.58184 10.0784 8.35837 9.67069 8.15479C8.84164 8.71345 7.42409 9.43046 6.47068 9.54699Z" fill="#101C55"/>
<path d="M10.8477 8.80772L10.8654 8.81801C11.6212 9.27814 12.3502 9.78165 13.0488 10.3261L13.1107 10.3754C9.45806 6.69097 6.49385 4.27466 3.69885 4.27466C0.903846 4.27466 0.00683594 7.57523 0.00683594 8.9695C0.00683594 12.4881 2.03394 13.5732 3.26869 13.5732C4.50344 13.5732 5.89652 12.6711 6.74597 12.0541C7.49347 11.5058 10.2273 9.30881 10.8477 8.80772C8.74113 10.1101 5.8972 11.3049 4.94515 10.5344C4.46267 10.1437 4.2921 9.34445 4.54761 8.63704C4.80788 7.91592 5.51054 7.29008 6.77994 7.29008C7.65113 7.29008 8.68269 7.66092 9.65106 8.14555" fill="#101C55"/>
<path d="M11.332 6.99854L11.3536 7.0196L11.332 6.99854Z" fill="#101C55"/>
<path d="M13.128 7.19625C14.292 6.3394 16.3986 5.07127 18.0887 4.71139C19.7787 4.35151 20.7987 4.71139 21.6652 5.25977C22.5316 5.80816 23.0494 6.76782 23.2703 7.27371C23.5098 7.84126 23.6626 8.44217 23.7235 9.05595C23.7655 9.42016 23.7685 9.78787 23.7324 10.1527C23.8312 9.73887 23.8935 9.31703 23.9186 8.89212C24.1 6.16186 22.1178 3.37402 19.1733 3.37402C16.2288 3.37402 12.7515 6.08166 12.5816 6.18448C12.4457 6.26811 11.6506 6.81718 11.3584 7.02214C11.567 7.22778 11.8606 7.51294 12.2044 7.85156C12.4076 7.7131 12.7053 7.50745 13.128 7.19625Z" fill="#101C55"/>
<path d="M26.9314 14.4412C26.3973 15.3324 25.3114 16.6807 23.5758 16.6807C20.8576 16.6807 17.3015 12.8989 17.0976 12.6933C16.9658 12.5603 14.5404 10.157 12.7913 8.43233L12.1987 7.8483C11.8549 7.50967 11.5613 7.22246 11.3527 7.01887L11.3316 6.99831L11.0231 6.70218L11.0156 6.69533C10.8117 6.52396 7.10817 2.7881 3.9598 2.85664C0.811427 2.92519 0.127117 6.52327 0.0747913 6.9469C0.00683594 7.49528 0.00683594 8.18076 0.00683594 8.96906C0.00683594 7.57479 0.904526 4.27353 3.69885 4.27353C6.49317 4.27353 9.45807 6.68984 13.1107 10.3743L13.0488 10.3249C13.7352 11.0104 14.9604 12.2573 15.2064 12.4876C15.5231 12.7844 17.2111 14.4186 18.5926 15.6065C19.9742 16.7945 21.968 17.8912 23.5309 17.7089C25.0939 17.5266 25.9943 16.2406 26.4639 15.538C26.911 14.8697 27.4479 13.4761 27.5824 13.1306C27.5192 13.2862 27.1299 14.1088 26.9314 14.4412Z" fill="#101C55"/>
<path d="M25.9312 2.08046C24.5265 0.549105 23.213 0.0583034 21.9103 0.0123764C20.6076 -0.0335506 19.7928 0.206367 18.5241 0.720475C17.2553 1.23458 15.3757 2.73167 14.7865 3.18819C14.1973 3.64472 12.544 5.19939 12.2497 5.4962C12.0037 5.74434 11.261 6.46889 11.0225 6.70264C11.0571 6.73349 11.1658 6.83974 11.331 6.99877L11.352 7.01933C11.647 6.81369 12.4393 6.26531 12.5752 6.18168C12.7451 6.07886 16.2224 3.37122 19.1669 3.37122C22.1114 3.37122 24.0937 6.15906 23.9122 8.88931C23.8881 9.31484 23.8267 9.73737 23.7287 10.152C23.283 11.9609 22.1488 12.7074 20.5627 12.7074C18.6484 12.7074 15.1942 10.1136 14.8089 9.83939C14.4793 9.60495 13.1631 8.69258 12.7907 8.43484C14.5398 10.1595 16.9652 12.5628 17.097 12.6958C17.3009 12.9014 20.857 16.6832 23.5752 16.6832C25.3107 16.6832 26.3613 15.4493 26.8968 14.5582C26.9879 14.3766 27.1143 14.1271 27.2862 13.785C27.8713 12.7273 28.2417 10.7319 28.2417 8.59593C28.2417 6.45998 27.3358 3.61113 25.9312 2.08046Z" fill="#101C55"/>
</g>
<defs>
<clipPath id="clip0_3564_630">
<rect width="28.25" height="17.7571" fill="white"/>
</clipPath>
</defs>
</svg>
